<?xml version="1.0" encoding="UTF-8" standalone="no"?>
<!DOCTYPE svg PUBLIC "-//W3C//DTD SVG 1.1//EN" "http://www.w3.org/Graphics/SVG/1.1/DTD/svg11.dtd">
<svg width="100%" height="100%" viewBox="0 0 3544 3544" version="1.1" xmlns="http://www.w3.org/2000/svg" xmlns:xlink="http://www.w3.org/1999/xlink" xml:space="preserve" xmlns:serif="http://www.serif.com/" style="fill-rule:evenodd;clip-rule:evenodd;stroke-linejoin:round;stroke-miterlimit:2;">
    <g id="Artboard2" transform="matrix(1,0,0,1,-2535.791484,0)">
        <rect x="2535.791" y="0" width="3543.307" height="3543.307" style="fill:none;"/>
        <g id="ChatGPT-Image-Apr-22--2026--11_10_09-AM.png" serif:id="ChatGPT Image Apr 22, 2026, 11_10_09 AM.png" transform="matrix(3.160543,0,0,3.160543,2623.141913,187.126717)">
            <path d="M723.404,718.09C723.943,719.424 725.427,719.377 724.293,720.292C723.377,721.031 722.951,720.074 711.262,727.122C661.578,757.079 547.443,790.321 539.188,793.971C524.907,781.272 522.391,779.034 400.065,599.791C379.223,569.252 311.375,471.929 307.608,466.424C302.421,458.845 301.663,458.805 301.663,458.805C301.663,458.805 301.208,627.118 300.318,736.499C299.907,787.012 299.414,837.394 299.414,837.394L159.501,837.845L149.294,837.673L149.227,135.153C149.227,135.153 151.191,135.087 185.499,135.061C456.059,134.861 456.047,133.851 479.471,135.944C713.853,156.886 752.468,464.273 576.236,563.024C562.495,570.724 560.806,572.11 560.806,572.11C560.806,572.11 635.644,677.839 640.899,684.175C680.497,731.914 721.701,718.441 723.404,718.09ZM301.874,347.501C301.614,452.241 300.809,453.057 302.409,453.677C303.036,453.919 441.5,453.872 441.5,453.872C441.5,453.872 502.173,461.737 530.011,405.247C552.187,360.248 532.759,278.353 450.5,278.312C438.819,278.306 305.406,278.239 304.485,278.298C301.825,278.467 302.233,279.806 302.121,304.495C302.024,325.999 301.942,325.928 301.874,347.501Z" style="fill:rgb(27,28,30);"/>
            <path d="M723.404,718.09C737.15,712.733 755.887,703.148 765.162,663.414C767.854,651.878 767.443,651.802 767.493,497.5C767.527,389.749 767.068,388.657 767.068,388.657C767.068,388.657 893.084,356.495 893.476,356.402C911.199,352.213 916.386,350.936 916.386,350.936C916.386,350.936 917.656,657.284 914.072,683.435C888.478,870.199 676.098,927.489 543.518,798.481C541.231,796.255 541.25,796.331 539.188,793.971C545.892,789.201 659.486,758.348 708.49,727.291C712.591,724.692 718.579,721.615 719.495,720.876C720.629,719.96 722.305,719.086 723.404,718.09Z" style="fill:rgb(34,80,89);"/>
            <path d="M791.594,318.868C768.917,324.719 767.174,325.047 767.174,325.047C767.174,325.047 768.512,156.232 768.594,141.672L916.605,140.405C916.605,140.405 916.331,136.995 916.346,162.5C916.352,172.337 916.605,286.409 916.605,286.409C916.605,286.409 915.212,286.986 886.498,294.491C878.914,296.473 832.058,308.72 791.594,318.868Z" style="fill:rgb(217,60,8);"/>
        </g>
    </g>
</svg>
