<svg xmlns="http://www.w3.org/2000/svg" version="1.1" xmlns:xlink="http://www.w3.org/1999/xlink" width="1000" height="1000"><metadata><rdf:RDF xmlns:rdf="http://www.w3.org/1999/02/22-rdf-syntax-ns#" xmlns:dc="http://purl.org/dc/elements/1.1/"><rdf:Description><dc:creator>RealFaviconGenerator</dc:creator><dc:source>https://realfavicongenerator.net</dc:source></rdf:Description></rdf:RDF></metadata><g clip-path="url(#SvgjsClipPath1059)"><rect width="1000" height="1000" fill="#ffffff"></rect><g transform="matrix(1.953125,0,0,1.953125,0,0)"><svg xmlns="http://www.w3.org/2000/svg" width="512" height="512" viewBox="0 0 1254 1254"><circle cx="627" cy="627" r="627" fill="#FFFFFF"></circle><g transform="translate(94, 115) scale(0.85)">
    <path fill="#1C1D1F" d="M661.07,973.98 C644.92,958.87 631.91,941.17 619.41,923.07 C544.84,815.11 470.28,707.13 395.71,599.16 C387.77,587.66 379.73,576.21 371.73,564.74 C371.2,563.98 370.6,563.28 369.41,561.75 C368.82,717.76 368.24,872.75 367.65,1028.17 C306.47,1028.17 245.69,1028.17 184.46,1027.6 C184,1015.87 183.99,1004.71 183.99,993.55 C183.99,719.85 183.99,446.15 183.94,172.45 C183.94,170.26 183.17,168.07 182.76,165.88 C184.12,165.58 185.48,165.01 186.84,165.01 C314.64,164.99 442.45,164.11 570.23,165.36 C647.24,166.12 713.98,194.09 766.98,251.04 C806.03,293 829.51,342.92 838,399.64 C846.04,453.33 841.62,505.92 822,556.81 C799.24,615.8 759.76,660.45 704.97,691.73 C699.37,694.92 693.61,697.86 687.45,701.18 C693.84,710.23 700.02,719.06 706.27,727.83 C731.02,762.55 755.66,797.34 780.59,831.93 C794.43,851.14 811.32,866.99 833.52,876.28 C851.54,883.82 870.06,886.13 889.45,881.15 C889.26,881.89 888.86,882.45 888.32,882.8 C865.05,897.78 840.24,909.84 814.77,920.42 C764.6,941.28 712.87,957.73 661.07,973.98 Z"></path>
    <path fill="#235059" d="M661.23,974.27 C712.87,957.73 764.6,941.28 814.77,920.42 C840.24,909.84 865.05,897.78 888.32,882.8 C888.86,882.45 889.26,881.89 889.85,881.09 C911.61,871.95 924.5,854.99 933.08,834.16 C938.53,820.94 940.9,807.01 942.34,792.3 C943.24,789.77 943.95,787.75 943.95,785.74 C944,682.52 944,579.29 944,476.07 C963.78,470.92 983.55,465.67 1003.36,460.62 C1042.85,450.56 1082.37,440.61 1122.37,431.1 C1122.92,433.59 1123.01,435.59 1123.01,437.59 C1123.01,560.01 1123,682.44 1123.05,804.87 C1123.05,806.92 1123.71,808.97 1124.06,811.02 C1123.81,833.48 1120.01,855.42 1114.24,877.04 C1101.74,923.85 1078.46,964.41 1043.18,997.76 C1007.45,1031.53 964.99,1052.6 916.69,1060.75 C827.55,1075.78 749.35,1051.22 681.08,993 C674.24,987.17 667.93,980.73 661.23,974.27 Z"></path>
    <path fill="#DA3C09" d="M1122.96,351.75 C1117.57,353.14 1112.18,354.53 1106.29,355.77 C1105.55,355.82 1105.32,356 1105.09,356.18 C1078.69,363.06 1052.3,369.95 1025.89,376.8 C998.84,383.81 971.78,390.77 944.15,397.43 C943.37,395.47 943,393.84 943,392.21 C942.96,318.83 942.95,245.45 943,172.08 C943,169.8 943.68,167.53 944.04,165.26 C982.03,165.2 1020.02,165.13 1058,165.08 C1079.17,165.06 1100.33,165.09 1121.87,165.64 C1122.53,168.96 1123.01,171.75 1123.04,174.55 C1123.14,184.2 1123.09,193.85 1123.08,203.5 C1123.04,252.92 1123,302.33 1122.96,351.75 Z"></path>
    <path fill="#FDFCFD" d="M567,340.96 C581.26,343.02 595.15,346.33 607.61,353.92 C645.51,376.97 662.69,411.45 660.41,454.99 C658.31,494.92 639.24,525.49 604.02,545.22 C590.59,552.74 575.94,556.65 560.5,556.68 C497.86,556.8 435.21,556.75 372.57,556.77 C371.75,556.77 370.92,556.77 369.85,556.77 C369.68,555.68 369.4,554.75 369.4,553.81 C369.67,483.51 369.96,413.2 370.26,342.89 C370.26,342.4 370.39,341.91 371.21,341.14 C436.96,340.9 501.98,340.93 567,340.96 Z"></path>
  </g></svg></g></g><defs><clipPath id="SvgjsClipPath1059"><rect width="1000" height="1000" x="0" y="0" rx="200" ry="200"></rect></clipPath></defs></svg>